# xmcd
#
# Track frame offsets:
#	150
#	10764
#	24038
#	40592
#	60551
#	75216
#	96062
#	116893
#	126858
#	135675
#	153794
#	177765
#	199630
#
# Disc length: 2968 seconds
#
# Revision: 1
# Processed by: cddbd v1.5.1PL0 Copyright (c) Steve Scherf et al.
# Submitted via: audiograbber 1.82.01
#
DISCID=8e0b960d
DTITLE=Flogging Molly - Swagger
DYEAR=1900
DGENRE=
TTITLE0=Salty Dog
TTITLE1=Selfish Man
TTITLE2=The Worst Day since Yesterday
TTITLE3=Every Dog has its Day
TTITLE4=Life in a Tenment Square
TTITLE5=The Ol Beggars Bush
TTITLE6=The Likes of You Again
TTITLE7=Black Friday Rule
TTITLE8=Grace of God Go I
TTITLE9=Devils Dance Floor
TTITLE10=These Exiled Years
TTITLE11=Sentimental Jonny
TTITLE12=Far Away Boys
EXTD=
EXTT0=
EXTT1=
EXTT2=
EXTT3=
EXTT4=
EXTT5=
EXTT6=
EXTT7=
EXTT8=
EXTT9=
EXTT10=
EXTT11=
EXTT12=
PLAYORDER=
